<svg width="106" height="106" viewBox="0 0 106 106" fill="none" xmlns="http://www.w3.org/2000/svg">
<path d="M53 66.25C60.3178 66.25 66.25 60.3178 66.25 53C66.25 45.6822 60.3178 39.75 53 39.75C45.6822 39.75 39.75 45.6822 39.75 53C39.75 60.3178 45.6822 66.25 53 66.25Z" stroke="white" stroke-width="6" stroke-linecap="round" stroke-linejoin="round"/>
<path d="M31.9189 74.0805C29.1476 71.3139 26.9489 68.0279 25.4488 64.4106C23.9487 60.7934 23.1765 56.9158 23.1765 52.9999C23.1765 49.0839 23.9487 45.2064 25.4488 41.5891C26.9489 37.9719 29.1476 34.6859 31.9189 31.9193" stroke="white" stroke-width="6" stroke-linecap="round" stroke-linejoin="round"/>
<path d="M74.0801 31.9193C76.8515 34.6859 79.0501 37.9719 80.5502 41.5891C82.0503 45.2064 82.8225 49.0839 82.8225 52.9999C82.8225 56.9158 82.0503 60.7934 80.5502 64.4106C79.0501 68.0279 76.8515 71.3139 74.0801 74.0805" stroke="white" stroke-width="6" stroke-linecap="round" stroke-linejoin="round"/>
<path d="M20.208 85.792C15.8969 81.4883 12.4768 76.3768 10.1433 70.75C7.80977 65.1232 6.60864 59.0914 6.60864 52.9999C6.60864 46.9084 7.80977 40.8766 10.1433 35.2498C12.4768 29.623 15.8969 24.5115 20.208 20.2078" stroke="white" stroke-width="6" stroke-linecap="round" stroke-linejoin="round"/>
<path d="M85.792 20.2078C90.103 24.5115 93.5231 29.623 95.8567 35.2498C98.1902 40.8766 99.3913 46.9084 99.3913 52.9999C99.3913 59.0914 98.1902 65.1232 95.8567 70.75C93.5231 76.3768 90.103 81.4883 85.792 85.792" stroke="white" stroke-width="6" stroke-linecap="round" stroke-linejoin="round"/>
</svg>
