<svg width="30" height="30" viewBox="0 0 30 30" fill="none" xmlns="http://www.w3.org/2000/svg">
<path d="M24.375 24.375H5.625C5.12772 24.375 4.65081 24.1775 4.29917 23.8258C3.94754 23.4742 3.75 22.9973 3.75 22.5V9.375C3.75 8.87772 3.94754 8.40081 4.29917 8.04918C4.65081 7.69754 5.12772 7.5 5.625 7.5H9.37431L11.2493 4.6875H18.7493L20.6243 7.5H24.375C24.8723 7.5 25.3492 7.69754 25.7008 8.04918C26.0525 8.40081 26.25 8.87772 26.25 9.375V22.5C26.25 22.9973 26.0525 23.4742 25.7008 23.8258C25.3492 24.1775 24.8723 24.375 24.375 24.375Z" stroke="#F2F2F2" stroke-width="2" stroke-linecap="round" stroke-linejoin="round"/>
<path d="M15 19.6875C17.33 19.6875 19.2188 17.7987 19.2188 15.4688C19.2188 13.1388 17.33 11.25 15 11.25C12.67 11.25 10.7812 13.1388 10.7812 15.4688C10.7812 17.7987 12.67 19.6875 15 19.6875Z" stroke="#F2F2F2" stroke-width="2" stroke-linecap="round" stroke-linejoin="round"/>
</svg>
