<svg width="38" height="34" viewBox="0 0 38 34" fill="none" xmlns="http://www.w3.org/2000/svg">
<path d="M33.9291 26.4484L35.622 29.3806" stroke="#2A9EC2" stroke-width="2" stroke-linecap="round" stroke-linejoin="round"/>
<path d="M30.4431 28.0781L30.9711 31.0724" stroke="#2A9EC2" stroke-width="2" stroke-linecap="round" stroke-linejoin="round"/>
<path d="M26.5503 28.0767L26.0222 31.0714" stroke="#2A9EC2" stroke-width="2" stroke-linecap="round" stroke-linejoin="round"/>
<path d="M23.0678 26.446L21.3667 29.3924" stroke="#2A9EC2" stroke-width="2" stroke-linecap="round" stroke-linejoin="round"/>
<path d="M21.375 24.7837C22.6228 26.3282 24.9103 28.2812 28.5 28.2812C32.0897 28.2812 34.3773 26.3282 35.6251 24.7837" stroke="#2A9EC2" stroke-width="2" stroke-linecap="round" stroke-linejoin="round"/>
<path fill-rule="evenodd" clip-rule="evenodd" d="M5 16C5 9.92487 9.92487 5 16 5C22.0751 5 27 9.92487 27 16H29C29 8.8203 23.1797 3 16 3C8.8203 3 3 8.8203 3 16C3 23.1797 8.8203 29 16 29V27C9.92487 27 5 22.0751 5 16Z" fill="#2A9EC2"/>
<path d="M16 19V18C16.7911 18 17.5645 17.7654 18.2223 17.3259C18.8801 16.8864 19.3928 16.2616 19.6955 15.5307C19.9983 14.7998 20.0775 13.9956 19.9231 13.2196C19.7688 12.4437 19.3878 11.731 18.8284 11.1716C18.269 10.6122 17.5563 10.2312 16.7804 10.0769C16.0044 9.92252 15.2002 10.0017 14.4693 10.3045C13.7384 10.6072 13.1136 11.1199 12.6741 11.7777C12.2346 12.4355 12 13.2089 12 14" stroke="#2A9EC2" stroke-width="2" stroke-linecap="round" stroke-linejoin="round"/>
<path d="M16 24.5C16.8284 24.5 17.5 23.8284 17.5 23C17.5 22.1716 16.8284 21.5 16 21.5C15.1716 21.5 14.5 22.1716 14.5 23C14.5 23.8284 15.1716 24.5 16 24.5Z" fill="#2A9EC2"/>
</svg>
