<svg width="20" height="21" viewBox="0 0 20 21" fill="none" xmlns="http://www.w3.org/2000/svg">
<path fill-rule="evenodd" clip-rule="evenodd" d="M3.12467 4.20826L16.8747 4.20825C17.2429 4.20825 17.5413 4.50673 17.5413 4.87492C17.5413 5.24311 17.2429 5.54159 16.8747 5.54159L3.12467 5.54159C2.75648 5.54159 2.45801 5.24311 2.45801 4.87492C2.45801 4.50673 2.75648 4.20826 3.12467 4.20826Z" fill="#EA3131"/>
<path fill-rule="evenodd" clip-rule="evenodd" d="M8.12492 7.95825C8.49311 7.95825 8.79158 8.25673 8.79158 8.62492V13.6249C8.79158 13.9931 8.49311 14.2916 8.12492 14.2916C7.75673 14.2916 7.45825 13.9931 7.45825 13.6249V8.62492C7.45825 8.25673 7.75673 7.95825 8.12492 7.95825Z" fill="#EA3131"/>
<path fill-rule="evenodd" clip-rule="evenodd" d="M11.8749 7.95825C12.2431 7.95825 12.5416 8.25673 12.5416 8.62492V13.6249C12.5416 13.9931 12.2431 14.2916 11.8749 14.2916C11.5067 14.2916 11.2083 13.9931 11.2083 13.6249V8.62492C11.2083 8.25673 11.5067 7.95825 11.8749 7.95825Z" fill="#EA3131"/>
<path fill-rule="evenodd" clip-rule="evenodd" d="M6.20825 2.37492C6.20825 2.00673 6.50673 1.70825 6.87492 1.70825H13.1249C13.4931 1.70825 13.7916 2.00673 13.7916 2.37492C13.7916 2.74311 13.4931 3.04159 13.1249 3.04159H6.87492C6.50673 3.04159 6.20825 2.74311 6.20825 2.37492Z" fill="#EA3131"/>
<path fill-rule="evenodd" clip-rule="evenodd" d="M4.37459 4.29163C4.69676 4.29163 4.95793 4.55279 4.95793 4.87496V16.75C4.95793 16.761 4.96232 16.7716 4.97013 16.7794C4.97794 16.7872 4.98854 16.7916 4.99959 16.7916H14.9996C15.0106 16.7916 15.0212 16.7872 15.0291 16.7794C15.0369 16.7716 15.0413 16.761 15.0413 16.75V4.87496C15.0413 4.5528 15.3024 4.29163 15.6246 4.29163C15.9468 4.29163 16.2079 4.5528 16.2079 4.87496V16.75C16.2079 17.0704 16.0806 17.3778 15.854 17.6044C15.6274 17.831 15.3201 17.9583 14.9996 17.9583H4.99959C4.67912 17.9583 4.37178 17.831 4.14517 17.6044C3.91857 17.3778 3.79126 17.0704 3.79126 16.75V4.87496C3.79126 4.55279 4.05243 4.29163 4.37459 4.29163Z" fill="#EA3131"/>
</svg>
